<?xml version="1.0" standalone="no"?><!DOCTYPE svg PUBLIC "-//W3C//DTD SVG 1.1//EN" "http://www.w3.org/Graphics/SVG/1.1/DTD/svg11.dtd"><svg class="icon" height="512" viewBox="0 0 1353 1024" version="1.1" xmlns="http://www.w3.org/2000/svg"><path d="M1149.147429 650.459429c-42.148571-60.781714-99.017143-106.532571-165.193143-132.845715a238.409143 238.409143 0 0 0 71.405714-79.890285 251.318857 251.318857 0 0 0 31.378286-122.057143c0-133.814857-103.588571-242.797714-231.04-242.797715a32.822857 32.822857 0 1 0 0 65.682286c91.172571 0 165.357714 79.414857 165.357714 177.115429s-74.185143 177.115429-165.357714 177.115428c-18.139429 0-32.841143 14.701714-32.841143 32.841143v0.164572c0 18.139429 14.701714 32.841143 32.841143 32.841142 164.041143 0 297.380571 142.317714 297.380571 317.147429a32.841143 32.841143 0 1 0 65.682286 0c0.164571-81.517714-24.009143-159.469714-69.613714-225.316571m-339.2-55.716572a445.44 445.44 0 0 0-111.597715-57.344 280.32 280.32 0 0 0 135.131429-239.707428C833.481143 142.957714 707.657143 17.133714 552.923429 17.133714S272.384 142.957714 272.384 297.691429c0 52.608 14.701714 104.082286 42.642286 148.516571a283.172571 283.172571 0 0 0 93.622857 91.995429 440.557714 440.557714 0 0 0-113.389714 58.002285 452.242286 452.242286 0 0 0-99.675429 96.896c-58.166857 77.44-88.886857 169.929143-88.886857 266.989715a32.841143 32.841143 0 1 0 65.682286 0c0-101.302857 39.533714-196.571429 111.104-268.617143 71.570286-71.734857 166.180571-111.433143 266.496-111.433143 3.273143 0.329143 6.692571 0 9.965714-0.658286l2.614857-0.658286c97.700571 1.956571 189.531429 41.344 259.309714 111.433143a377.856 377.856 0 0 1 111.104 268.617143 32.841143 32.841143 0 1 0 65.682286 0c0-97.060571-30.72-189.366857-89.051429-266.989714a445.275429 445.275429 0 0 0-99.657142-97.042286M553.088 82.834286c118.454857 0 214.857143 96.402286 214.857143 214.857143s-96.402286 214.857143-214.857143 214.857142-214.857143-96.402286-214.857143-214.857142 96.402286-214.857143 214.857143-214.857143m0 0z" /></svg>